<svg width="536" height="120" viewBox="0 0 536 120" fill="none" xmlns="http://www.w3.org/2000/svg">
<path d="M272.646 71.6215C262.152 71.6215 251.658 71.6215 241.163 71.6215C241.058 71.4116 240.953 71.2017 240.848 70.9919C241.793 70.5721 242.842 69.9424 243.787 69.8375C247.46 69.5226 248.929 67.4237 249.034 64.0655C249.034 46.1199 249.034 28.1744 248.509 10.0189C240.533 30.798 232.558 51.5771 224.582 72.3561C224.162 72.4611 223.742 72.4611 223.217 72.566C214.297 51.2622 205.272 29.9585 196.352 8.65467C196.142 8.65467 195.932 8.65467 195.827 8.65467C195.722 9.38929 195.617 10.2288 195.617 10.9635C195.617 25.9706 195.617 40.8727 195.617 55.8798C195.617 57.5589 195.827 59.238 195.932 60.9171C196.562 67.4237 197.296 68.1583 203.383 69.8375C204.222 70.0473 204.852 70.782 205.272 71.9364C198.87 71.9364 192.469 71.9364 185.018 71.9364C186.277 70.782 186.802 69.9424 187.431 69.8375C191.209 68.9979 192.783 66.4792 192.993 62.8062C193.203 58.9232 193.413 55.0402 193.413 51.0523C193.413 37.9343 193.413 24.9211 193.413 11.803C193.413 10.2288 193.203 8.65467 193.098 7.0805C192.888 4.14205 191.209 2.67281 188.376 2.46292C187.431 2.35798 186.592 1.93819 185.752 1.62336C185.857 1.30853 185.857 0.993697 185.962 0.678863C186.802 0.573918 187.536 0.468977 188.376 0.468977C194.358 0.468977 200.444 0.67886 206.426 0.364026C209.575 0.259081 211.044 1.09864 212.303 4.03709C217.865 17.9947 223.742 31.8475 229.514 45.8051C229.934 46.7496 230.354 47.6941 231.088 49.2683C231.823 47.3793 232.453 46.12 232.977 44.8606C238.225 31.2178 243.472 17.575 248.509 3.93216C249.559 1.20359 250.923 0.468967 253.547 0.573912C259.843 0.783802 266.245 0.67886 272.856 1.41347C272.227 1.83325 271.597 2.35798 270.862 2.56787C266.56 3.40743 265.72 4.24698 265.405 8.75961C265.195 11.0684 265.3 13.4821 265.3 15.7909C265.3 30.6931 265.3 45.4903 265.3 60.3924C265.3 61.8617 265.405 63.3309 265.51 64.6952C265.72 67.7386 267.084 69.7325 270.443 69.9424C271.282 69.9424 272.017 70.4671 272.856 70.677C272.646 70.9919 272.646 71.3067 272.646 71.6215Z" fill="#1E5A46"/>
<path d="M398.371 71.202C399.735 70.5723 400.26 70.2575 400.785 70.1525C406.242 68.6833 406.767 68.3685 406.767 62.3866C406.872 50.318 406.872 38.2493 406.872 26.1807C406.872 20.4087 406.977 14.5318 406.662 8.75983C406.452 3.93237 405.717 3.40765 400.995 2.56809C400.365 2.46315 399.735 2.04336 398.371 1.41369C399.63 0.888969 400.155 0.574131 400.785 0.574131C412.853 0.574131 424.922 0.25931 436.886 0.784034C447.065 1.20381 456.51 4.14226 463.122 12.7477C469.104 20.4087 470.678 29.4339 469.838 38.6691C467.949 58.3987 455.881 70.3624 435.941 71.7267C424.083 72.5662 412.119 72.1465 400.155 72.1465C399.84 72.1465 399.525 71.8316 398.371 71.202ZM423.033 36.1504C423.138 45.4905 423.033 54.9355 423.138 64.2756C423.243 68.7882 424.922 70.1525 429.33 70.3624C440.979 70.8871 448.535 65.3251 451.263 53.6762C453.992 42.0273 453.992 30.1686 451.263 18.5197C448.85 8.13016 442.448 2.77797 431.639 2.1483C425.132 1.72852 423.138 3.40764 423.033 10.0192C422.928 18.7296 423.033 27.44 423.033 36.1504Z" fill="#1E5A46"/>
<path d="M11.9637 70.468C13.6428 70.2581 15.217 69.9433 16.8961 69.7334C20.3593 69.5235 22.1433 67.5295 22.4582 64.1713C22.5631 63.2268 22.6681 62.1773 22.6681 61.1279C22.6681 42.4477 22.6681 23.8725 22.6681 5.19232C22.6681 4.4577 22.5631 3.72308 22.5631 2.98847C16.1615 1.93902 10.7044 4.03793 7.76591 9.70495C5.56208 13.9027 4.40768 18.6253 2.62362 23.0329C2.30879 23.9774 1.46923 24.712 0.944505 25.5516C0.62967 25.3417 0.314834 25.2368 0 25.0269C0 17.0511 0 8.97033 0 0.679688C20.4642 0.679688 41.1384 0.679688 61.6026 0.679688C61.6026 8.97033 61.6026 17.0511 61.6026 25.1318C61.1828 25.2368 60.763 25.4467 60.4482 25.5516C59.9235 24.6071 59.2938 23.7675 58.979 22.7181C57.5097 18.7302 56.5652 14.5324 54.7812 10.7544C51.7378 4.35276 46.2806 2.04397 38.9345 2.5687C38.9345 3.82803 38.9345 4.98243 38.9345 6.24177C38.9345 23.9774 38.9345 41.7131 38.9345 59.5537C38.9345 60.8131 38.9345 61.9675 39.1444 63.2268C39.7741 67.9493 40.9285 69.1037 45.651 69.7334C47.0153 69.9433 48.3795 70.1531 49.7438 70.8878C46.9103 72.8817 43.762 71.7273 40.8235 71.8323C37.4653 71.9372 34.1071 71.7273 30.7488 71.7273C27.4955 71.7273 24.2422 71.8323 20.989 71.8323C17.9456 71.8323 14.9022 72.357 11.9637 71.9372C11.8588 71.5174 11.8588 70.9927 11.9637 70.468Z" fill="#1E5A46"/>
<path d="M347.892 71.7245C337.502 71.7245 327.322 71.7245 317.143 71.7245C317.038 71.4097 317.038 70.9899 316.933 70.6751C318.087 70.3602 319.242 69.9405 320.501 69.8355C323.44 69.4157 324.804 67.6317 323.859 64.9031C321.76 58.7114 319.557 52.5196 317.143 46.3279C316.828 45.5933 315.464 45.0686 314.519 44.9636C308.642 44.8587 302.66 44.8587 296.784 44.9636C295.839 44.9636 294.37 45.8032 294.055 46.6427C292.376 51.0504 290.802 55.4581 289.647 59.9707C288.073 66.2674 289.542 68.4712 295.944 69.9405C296.679 70.1504 297.308 70.4652 298.043 70.6751C298.043 71.0949 298.043 71.4097 298.043 71.8295C295.944 71.8295 293.95 71.9344 291.851 71.9344C289.647 71.9344 287.338 71.9344 285.135 71.8295C282.826 71.8295 280.517 71.8295 277.684 71.8295C278.103 71.0949 278.313 70.2553 278.733 70.0454C282.931 68.0515 284.715 64.1685 286.289 60.2856C293.74 41.2905 301.191 22.4005 308.432 3.30053C309.587 0.257132 311.371 0.467028 313.68 0.257138C316.303 0.0472488 317.143 1.30658 317.877 3.30053C325.329 22.6104 332.78 41.9202 340.336 61.23C341.7 64.9031 342.959 68.6811 347.052 70.2553C347.577 70.3603 347.682 71.0949 347.892 71.7245ZM316.093 42.9697C312.735 33.9444 309.587 25.234 306.124 15.5791C303.395 22.7153 300.876 28.6972 298.777 34.8889C297.413 39.0867 300.352 42.7598 304.654 42.9697C308.327 43.0746 312.001 42.9697 316.093 42.9697Z" fill="#1E5A46"/>
<path d="M535.323 71.7254C524.829 71.7254 514.649 71.7254 504.47 71.7254C504.47 71.4105 504.365 70.9908 504.365 70.6759C505.624 70.3611 506.988 70.0463 508.248 69.7314C510.976 69.2067 512.236 67.6325 511.396 64.904C509.297 58.7122 507.093 52.5205 504.784 46.3287C504.575 45.6991 503.315 44.9645 502.581 44.9645C496.494 44.8595 490.302 44.8595 484.215 44.9645C483.376 44.9645 482.011 46.0139 481.697 46.8535C480.122 50.7364 478.653 54.7243 477.604 58.8172C475.715 66.0584 477.079 68.2622 484.215 70.0463C484.74 70.1512 485.265 70.3611 485.789 70.571C484.95 71.9353 472.986 72.5649 465.535 71.7254C465.85 71.0957 465.955 70.2562 466.375 70.0463C470.992 67.9474 472.671 63.6446 474.351 59.3419C481.697 40.5568 489.148 21.8766 496.179 2.98656C497.438 -0.266731 499.327 0.362934 501.531 0.0481001C503.945 -0.266734 504.784 0.992606 505.519 2.98656C512.865 22.1914 520.421 41.3964 527.767 60.6012C529.237 64.4842 530.496 68.4721 534.799 70.2562C535.009 70.466 535.114 71.0957 535.323 71.7254ZM493.975 16.6294C493.765 16.6294 493.45 16.5244 493.241 16.5244C490.932 22.6112 488.413 28.698 486.314 34.8898C485.055 38.6678 487.469 42.5507 491.142 42.8656C495.13 43.1804 499.117 42.9705 503.525 42.9705C500.272 33.8403 497.124 25.2348 493.975 16.6294Z" fill="#1E5A46"/>
<path d="M70.8379 0.78125C81.7521 0.78125 92.2466 0.78125 102.741 0.78125C102.846 1.09608 102.951 1.51586 103.056 1.8307C102.006 2.14553 100.957 2.5653 99.9076 2.67024C97.179 2.98508 94.9752 4.34936 94.9752 7.18287C94.9752 24.079 94.8703 40.8701 95.4999 57.7663C95.8148 65.0074 99.3829 68.6805 104.735 69.73C112.816 71.3041 120.057 69.1003 122.995 62.8036C125.199 58.0811 126.669 52.624 126.878 47.4817C127.403 36.1476 127.088 24.7087 126.983 13.3746C126.878 6.13343 125.724 4.87408 118.693 2.67024C118.168 2.5653 117.853 1.93564 116.804 0.991136C124.045 0.991136 130.447 0.991136 137.898 0.991136C136.743 1.93564 136.218 2.46035 135.589 2.67024C130.971 4.4543 129.817 5.8186 129.712 10.751C129.607 20.6158 129.817 30.3757 129.397 40.2405C129.187 46.6421 128.662 53.2536 127.193 59.4454C124.78 69.2052 117.119 73.0882 107.883 73.508C102.951 73.7179 97.8087 73.1931 93.0862 71.9338C83.851 69.4151 79.0236 61.9641 78.8137 50.5251C78.6038 38.1416 78.7088 25.7581 78.6038 13.3746C78.6038 12.0103 78.6038 10.6461 78.4989 9.38672C78.0791 4.13948 77.6593 3.82464 72.517 2.67024C72.0972 2.5653 71.6774 2.46036 71.3626 2.25047C71.1527 1.93564 71.1527 1.51586 70.8379 0.78125Z" fill="#1E5A46"/>
<path d="M338.656 44.9643C341.175 38.3528 343.694 32.0561 346.107 25.7594C349.046 18.2034 352.089 10.6474 354.818 2.98639C355.552 0.887499 356.602 0.0479498 358.911 0.257839C361.114 0.467729 363.003 0.0479403 364.053 2.98639C371.399 22.5061 378.955 41.816 386.511 61.2308C387.875 64.9038 389.135 68.6818 393.228 70.3609C393.542 70.4659 393.647 71.2005 393.857 71.8302C383.468 71.8302 373.288 71.8302 363.108 71.8302C363.108 71.5153 363.003 71.2005 363.003 70.7807C364.263 70.4659 365.522 70.0461 366.886 69.8362C369.615 69.3115 370.874 67.6324 370.035 65.0088C367.936 58.817 365.732 52.6253 363.318 46.4335C363.003 45.6989 361.429 45.0693 360.485 45.0693C353.453 44.8594 346.317 44.9643 338.656 44.9643ZM352.614 16.5243C352.299 16.5243 352.089 16.5243 351.774 16.4193C349.466 22.821 346.842 29.2226 344.848 35.7292C343.799 38.9825 346.212 42.4456 349.361 42.7605C353.453 43.0753 357.651 42.8654 362.164 42.8654C358.911 33.7352 355.762 25.1298 352.614 16.5243Z" fill="#1E5A46"/>
<path d="M145.663 71.0948C146.607 70.675 147.447 70.0453 148.391 69.9404C151.96 69.6256 153.219 67.5267 153.219 64.2734C153.219 55.0382 153.324 45.6982 153.324 36.463C153.324 27.7526 153.324 19.0422 153.324 10.3318C153.324 4.24495 152.904 3.93012 147.132 2.46089C146.607 2.35595 146.188 1.83122 145.033 0.886719C156.262 0.886719 166.652 0.886719 176.936 0.886719C177.041 1.09661 177.146 1.41144 177.251 1.62133C176.307 1.93616 175.467 2.4609 174.523 2.56584C171.689 2.88068 170.01 4.24495 169.8 7.18341C169.695 8.75758 169.485 10.3318 169.485 11.801C169.485 27.9625 169.485 44.2289 169.485 60.3904C169.485 61.3349 169.485 62.1745 169.59 63.119C170.01 68.3662 170.43 68.786 175.467 70.0453C176.097 70.1503 176.622 70.4651 177.146 71.5146C166.757 71.5146 156.472 71.5146 146.083 71.5146C145.873 71.4096 145.768 71.1997 145.663 71.0948Z" fill="#1E5A46"/>
<path d="M15.6363 119.369C13.9572 119.369 12.9078 119.369 11.6484 119.369C11.6484 109.924 11.6484 100.689 11.6484 90.7188C17.0006 91.0336 22.3528 90.9286 27.4951 91.6632C31.483 92.188 33.8967 95.1264 34.5264 99.2193C35.0511 103.312 33.8967 106.775 30.2237 108.979C29.8039 109.294 29.2792 109.504 28.4396 110.029C30.5385 113.072 32.5324 116.01 34.6313 119.054C32.0077 119.998 30.1187 119.474 28.9643 117.27C28.7544 116.745 28.2297 116.43 28.0198 115.905C25.711 109.924 20.8836 110.238 15.5314 111.078C15.6363 113.807 15.6363 116.43 15.6363 119.369ZM15.8462 94.4968C15.8462 98.9044 15.8462 102.997 15.8462 107.3C18.6797 107.3 21.4083 107.405 24.0319 107.3C28.2297 107.09 30.6434 104.571 30.6434 100.793C30.5385 97.2253 28.2297 94.8116 24.1369 94.4968C21.4083 94.3918 18.7847 94.4968 15.8462 94.4968Z" fill="#1E5A46"/>
<path d="M69.3692 91.2461C69.3692 92.2955 69.3692 93.1351 69.3692 94.3944C64.122 94.3944 58.9797 94.3944 53.5225 94.3944C53.5225 97.4378 53.5225 100.166 53.5225 103.21C58.1401 103.21 62.6527 103.21 67.3753 103.21C67.3753 104.469 67.3753 105.414 67.3753 106.673C62.7577 106.673 58.2451 106.673 53.5225 106.673C53.5225 109.821 53.5225 112.655 53.5225 115.908C58.8747 115.908 64.3318 115.908 69.8939 115.908C69.8939 117.272 69.8939 118.217 69.8939 119.371C63.0725 119.371 56.356 119.371 49.4297 119.371C49.4297 109.926 49.4297 100.691 49.4297 91.2461C56.0412 91.2461 62.5478 91.2461 69.3692 91.2461Z" fill="#1E5A46"/>
<path d="M180.714 106.673C180.714 110.031 180.714 112.865 180.714 116.013C186.171 116.013 191.523 116.013 196.98 116.013C197.19 117.797 198.135 119.581 195.511 119.581C189.319 119.686 183.128 119.581 176.621 119.581C176.621 109.926 176.621 100.691 176.621 91.2461C183.128 91.2461 189.634 91.2461 196.456 91.2461C196.561 92.1906 196.561 93.0302 196.666 94.3944C191.208 94.3944 186.066 94.3944 180.714 94.3944C180.714 97.4378 180.714 100.166 180.714 103.21C185.332 103.21 189.949 103.21 194.567 103.21C194.567 104.469 194.567 105.414 194.567 106.568C190.054 106.673 185.541 106.673 180.714 106.673Z" fill="#1E5A46"/>
<path d="M348.313 94.2884C348.313 97.4368 348.313 100.06 348.313 103.104C352.93 103.104 357.548 103.104 362.27 103.104C362.375 104.363 362.375 105.203 362.48 106.567C357.653 106.567 353.035 106.567 348.313 106.567C348.313 109.82 348.313 112.759 348.313 115.802C353.665 115.802 359.017 115.802 364.684 115.802C364.789 117.061 364.789 118.111 364.894 119.265C357.968 119.265 351.251 119.265 344.43 119.265C344.43 109.925 344.43 100.585 344.43 91.0352C350.936 91.0352 357.443 91.0352 364.159 91.0352C364.159 92.0846 364.159 93.0291 364.159 94.1835C358.912 94.2884 353.77 94.2884 348.313 94.2884Z" fill="#1E5A46"/>
<path d="M110.193 119.16C106.939 120.315 105.47 119.16 104.84 116.536C104.001 113.073 101.902 111.919 98.5437 112.444C96.9696 112.654 95.3954 112.654 93.8212 112.444C89.4135 111.814 86.3701 112.968 85.2158 117.691C85.0059 118.74 82.802 119.265 81.5427 120C81.2279 119.685 81.018 119.37 80.7031 119.055C82.0674 115.907 83.4317 112.863 84.9009 109.715C87.4196 104.048 89.9383 98.2761 92.6668 92.714C93.0866 91.8745 94.4509 91.1399 95.3954 91.0349C96.235 90.93 97.7042 91.5596 98.019 92.2943C102.112 101.215 106.1 110.135 110.193 119.16ZM89.3086 108.876C93.6113 108.876 97.3893 108.876 101.482 108.876C99.3833 104.153 97.4943 99.9552 95.2904 95.1278C93.1915 100.06 91.3025 104.363 89.3086 108.876Z" fill="#1E5A46"/>
<path d="M271.387 119.054C274.22 112.862 276.949 106.67 279.782 100.479C281.042 97.7501 282.196 94.9165 283.455 92.2929C284.505 90.194 287.758 90.194 288.703 92.2929C292.691 101.003 296.573 109.714 300.561 118.424C300.666 118.634 300.561 118.844 300.561 119.159C298.253 120.103 296.469 119.683 295.839 116.955C294.999 113.072 292.586 111.813 288.808 112.442C287.443 112.652 285.869 112.652 284.505 112.442C280.307 111.918 277.264 112.757 276.109 117.585C275.585 119.998 275.06 119.893 271.387 119.054ZM292.271 109.084C290.172 104.257 288.283 99.9539 286.079 95.0215C283.875 99.9539 281.986 104.362 279.887 109.084C284.19 109.084 287.863 109.084 292.271 109.084Z" fill="#1E5A46"/>
<path d="M209.365 116.433C209.785 115.383 210.205 114.544 210.625 113.389C214.717 115.488 218.705 117.272 223.428 116.013C225.632 115.383 227.521 114.229 227.206 112.13C226.996 110.661 225.317 108.877 223.848 108.247C221.224 107.092 218.286 106.673 215.557 105.728C211.569 104.364 209.89 101.95 210.1 98.2771C210.31 94.709 212.619 92.0854 216.501 91.0359C221.224 89.7766 225.737 90.4062 230.144 92.9249C229.725 93.9744 229.41 94.9189 229.305 95.0238C225.212 94.8139 221.539 94.1843 217.866 94.4991C216.501 94.604 214.508 96.7029 214.403 98.0672C214.298 99.3266 215.977 101.425 217.341 102.055C219.86 103.314 222.903 103.629 225.632 104.574C229.725 105.938 231.614 108.457 231.404 111.815C231.299 115.383 228.78 118.217 224.792 119.161C219.23 120.735 214.193 119.791 209.365 116.433Z" fill="#1E5A46"/>
<path d="M142.2 115.907C142.2 117.376 142.2 118.216 142.2 119.37C135.693 119.37 129.397 119.37 122.785 119.37C122.785 110.03 122.785 100.795 122.785 91.245C123.94 91.1401 125.094 91.1401 126.563 91.0352C126.563 99.4307 126.563 107.511 126.563 115.907C131.915 115.907 136.953 115.907 142.2 115.907Z" fill="#1E5A46"/>
<path d="M254.595 119.161C251.447 120.21 250.397 119.476 250.397 116.432C250.502 109.296 250.397 102.16 250.397 94.6038C247.249 94.6038 244.205 94.6038 240.952 94.6038C240.847 93.2395 240.847 92.295 240.742 91.1406C248.613 91.1406 256.274 91.1406 264.145 91.1406C264.25 92.0851 264.25 93.0296 264.355 94.289C261.101 94.289 257.953 94.289 254.49 94.289C254.595 102.789 254.595 110.975 254.595 119.161Z" fill="#1E5A46"/>
<path d="M321.865 94.3939C321.865 102.055 321.76 109.296 321.865 116.432C321.97 119.266 320.816 120.105 317.772 119.161C317.772 111.08 317.772 102.894 317.772 94.4989C314.309 94.4989 311.371 94.4989 308.118 94.4989C308.013 93.3445 307.908 92.4 307.803 91.1406C315.674 91.1406 323.335 91.1406 331.205 91.1406C331.31 92.0851 331.415 93.0296 331.52 94.3939C328.267 94.3939 325.224 94.3939 321.865 94.3939Z" fill="#1E5A46"/>
</svg>
