<svg width="268" height="60" viewBox="0 0 268 60" fill="none" xmlns="http://www.w3.org/2000/svg">
<path d="M136.323 35.8108C131.076 35.8108 125.829 35.8108 120.582 35.8108C120.529 35.7058 120.477 35.6009 120.424 35.4959C120.896 35.286 121.421 34.9712 121.893 34.9187C123.73 34.7613 124.464 33.7119 124.517 32.0327C124.517 23.06 124.517 14.0872 124.255 5.00947C120.267 15.399 116.279 25.7885 112.291 36.1781C112.081 36.2305 111.871 36.2305 111.609 36.283C107.149 25.6311 102.636 14.9792 98.1758 4.32734C98.0709 4.32734 97.9659 4.32734 97.9134 4.32734C97.861 4.69464 97.8085 5.11442 97.8085 5.48173C97.8085 12.9853 97.8085 20.4364 97.8085 27.9399C97.8085 28.7795 97.9134 29.619 97.9659 30.4586C98.2808 33.7119 98.6481 34.0792 101.691 34.9187C102.111 35.0237 102.426 35.391 102.636 35.9682C99.4351 35.9682 96.2343 35.9682 92.5088 35.9682C93.1385 35.391 93.4008 34.9712 93.7157 34.9187C95.6047 34.499 96.3917 33.2396 96.4967 31.4031C96.6016 29.4616 96.7066 27.5201 96.7066 25.5262C96.7066 18.9671 96.7066 12.4606 96.7066 5.90151C96.7066 5.11442 96.6016 4.32734 96.5492 3.54025C96.4442 2.07102 95.6047 1.33641 94.1879 1.23146C93.7157 1.17899 93.2959 0.969097 92.8761 0.81168C92.9286 0.654263 92.9286 0.496849 92.981 0.339432C93.4008 0.286959 93.7681 0.234488 94.1879 0.234488C97.1788 0.234488 100.222 0.33943 103.213 0.182013C104.787 0.12954 105.522 0.54932 106.152 2.01855C108.933 8.99737 111.871 15.9237 114.757 22.9026C114.967 23.3748 115.177 23.8471 115.544 24.6341C115.911 23.6896 116.226 23.06 116.489 22.4303C119.112 15.6089 121.736 8.78749 124.255 1.96608C124.779 0.601797 125.461 0.234484 126.773 0.286956C129.922 0.391901 133.122 0.33943 136.428 0.706737C136.113 0.916626 135.799 1.17899 135.431 1.28394C133.28 1.70372 132.86 2.12349 132.703 4.3798C132.598 5.5342 132.65 6.74106 132.65 7.89545C132.65 15.3465 132.65 22.7451 132.65 30.1962C132.65 30.9308 132.703 31.6654 132.755 32.3476C132.86 33.8693 133.542 34.8663 135.221 34.9712C135.641 34.9712 136.008 35.2336 136.428 35.3385C136.323 35.4959 136.323 35.6534 136.323 35.8108Z" fill="white"/>
<path d="M199.186 35.601C199.868 35.2861 200.13 35.1287 200.392 35.0763C203.121 34.3416 203.383 34.1842 203.383 31.1933C203.436 25.159 203.436 19.1247 203.436 13.0903C203.436 10.2044 203.488 7.26589 203.331 4.37991C203.226 1.96618 202.859 1.70382 200.497 1.28405C200.183 1.23157 199.868 1.02168 199.186 0.706846C199.815 0.444484 200.078 0.287066 200.392 0.287066C206.427 0.287066 212.461 0.129655 218.443 0.392017C223.533 0.601906 228.255 2.07113 231.561 6.37387C234.552 10.2043 235.339 14.717 234.919 19.3345C233.975 29.1993 227.94 35.1812 217.971 35.8633C212.041 36.2831 206.059 36.0732 200.078 36.0732C199.92 36.0732 199.763 35.9158 199.186 35.601ZM211.517 18.0752C211.569 22.7452 211.517 27.4678 211.569 32.1378C211.621 34.3941 212.461 35.0763 214.665 35.1812C220.489 35.4436 224.267 32.6625 225.632 26.8381C226.996 21.0137 226.996 15.0843 225.632 9.25985C224.425 4.06508 221.224 1.38899 215.819 1.07415C212.566 0.864262 211.569 1.70382 211.517 5.00958C211.464 9.36479 211.517 13.72 211.517 18.0752Z" fill="white"/>
<path d="M5.98185 35.234C6.82141 35.129 7.6085 34.9716 8.44806 34.8667C10.1796 34.7617 11.0717 33.7648 11.2291 32.0856C11.2816 31.6134 11.334 31.0887 11.334 30.5639C11.334 21.2239 11.334 11.9362 11.334 2.59616C11.334 2.22885 11.2816 1.86154 11.2816 1.49423C8.08075 0.969511 5.35218 2.01896 3.88296 4.85247C2.78104 6.95137 2.20384 9.31262 1.31181 11.5165C1.15439 11.9887 0.734614 12.356 0.472252 12.7758C0.314835 12.6709 0.157417 12.6184 0 12.5134C0 8.52553 0 4.48516 0 0.339844C10.2321 0.339844 20.5692 0.339844 30.8013 0.339844C30.8013 4.48516 30.8013 8.52554 30.8013 12.5659C30.5914 12.6184 30.3815 12.7233 30.2241 12.7758C29.9617 12.3035 29.6469 11.8838 29.4895 11.359C28.7549 9.36509 28.2826 7.2662 27.3906 5.3772C25.8689 2.17638 23.1403 1.02199 19.4673 1.28435C19.4673 1.91402 19.4673 2.49121 19.4673 3.12088C19.4673 11.9887 19.4673 20.8566 19.4673 29.7769C19.4673 30.4065 19.4673 30.9837 19.5722 31.6134C19.887 33.9746 20.4642 34.5518 22.8255 34.8667C23.5076 34.9716 24.1898 35.0766 24.8719 35.4439C23.4552 36.4408 21.881 35.8637 20.4118 35.9161C18.7326 35.9686 17.0535 35.8636 15.3744 35.8636C13.7478 35.8636 12.1211 35.9161 10.4945 35.9161C8.97278 35.9161 7.45108 36.1785 5.98185 35.9686C5.92938 35.7587 5.92938 35.4963 5.98185 35.234Z" fill="white"/>
<path d="M173.946 35.8623C168.751 35.8623 163.661 35.8623 158.571 35.8623C158.519 35.7048 158.519 35.4949 158.466 35.3375C159.044 35.1801 159.621 34.9702 160.251 34.9178C161.72 34.7079 162.402 33.8158 161.93 32.4516C160.88 29.3557 159.778 26.2598 158.571 23.1639C158.414 22.7966 157.732 22.5343 157.26 22.4818C154.321 22.4293 151.33 22.4293 148.392 22.4818C147.92 22.4818 147.185 22.9016 147.027 23.3214C146.188 25.5252 145.401 27.729 144.824 29.9854C144.037 33.1337 144.771 34.2356 147.972 34.9702C148.339 35.0752 148.654 35.2326 149.021 35.3375C149.021 35.5474 149.021 35.7048 149.021 35.9147C147.972 35.9147 146.975 35.9672 145.926 35.9672C144.824 35.9672 143.669 35.9672 142.567 35.9147C141.413 35.9147 140.259 35.9147 138.842 35.9147C139.052 35.5474 139.157 35.1276 139.367 35.0227C141.465 34.0257 142.357 32.0842 143.145 30.1428C146.87 20.6453 150.596 11.2002 154.216 1.65027C154.793 0.128566 155.685 0.233514 156.84 0.128569C158.152 0.0236244 158.571 0.65329 158.939 1.65027C162.664 11.3052 166.39 20.9601 170.168 30.615C170.85 32.4516 171.48 34.3406 173.526 35.1276C173.788 35.1801 173.841 35.5474 173.946 35.8623ZM158.047 21.4848C156.368 16.9722 154.793 12.617 153.062 7.78953C151.698 11.3577 150.438 14.3486 149.389 17.4445C148.707 19.5434 150.176 21.3799 152.327 21.4848C154.164 21.5373 156 21.4848 158.047 21.4848Z" fill="white"/>
<path d="M267.662 35.8627C262.414 35.8627 257.325 35.8627 252.235 35.8627C252.235 35.7053 252.182 35.4954 252.182 35.338C252.812 35.1805 253.494 35.0231 254.124 34.8657C255.488 34.6034 256.118 33.8163 255.698 32.452C254.649 29.3561 253.547 26.2602 252.392 23.1644C252.287 22.8495 251.658 22.4822 251.29 22.4822C248.247 22.4298 245.151 22.4298 242.108 22.4822C241.688 22.4822 241.006 23.007 240.848 23.4267C240.061 25.3682 239.327 27.3622 238.802 29.4086C237.857 33.0292 238.54 34.1311 242.108 35.0231C242.37 35.0756 242.632 35.1806 242.895 35.2855C242.475 35.9676 236.493 36.2825 232.768 35.8627C232.925 35.5479 232.977 35.1281 233.187 35.0231C235.496 33.9737 236.336 31.8223 237.175 29.6709C240.848 20.2784 244.574 10.9383 248.09 1.49328C248.719 -0.133365 249.664 0.181467 250.766 0.0240501C251.972 -0.133367 252.392 0.496303 252.76 1.49328C256.433 11.0957 260.211 20.6982 263.884 30.3006C264.618 32.2421 265.248 34.236 267.399 35.1281C267.504 35.233 267.557 35.5479 267.662 35.8627ZM246.988 8.31469C246.883 8.31469 246.725 8.26222 246.62 8.26222C245.466 11.3056 244.207 14.349 243.157 17.4449C242.527 19.3339 243.734 21.2754 245.571 21.4328C247.565 21.5902 249.559 21.4853 251.763 21.4853C250.136 16.9202 248.562 12.6174 246.988 8.31469Z" fill="white"/>
<path d="M35.4189 0.390625C40.8761 0.390625 46.1233 0.390625 51.3706 0.390625C51.423 0.548042 51.4755 0.757932 51.528 0.915349C51.0032 1.07277 50.4785 1.28265 49.9538 1.33512C48.5895 1.49254 47.4876 2.17468 47.4876 3.59144C47.4876 12.0395 47.4351 20.4351 47.75 28.8831C47.9074 32.5037 49.6914 34.3403 52.3675 34.865C56.4079 35.6521 60.0285 34.5501 61.4977 31.4018C62.5996 29.0405 63.3343 26.312 63.4392 23.7408C63.7016 18.0738 63.5441 12.3543 63.4917 6.68731C63.4392 3.06672 62.862 2.43704 59.3464 1.33512C59.084 1.28265 58.9266 0.96782 58.4018 0.495568C62.0224 0.495568 65.2233 0.495568 68.9488 0.495568C68.3716 0.96782 68.1092 1.23018 67.7944 1.33512C65.4856 2.22715 64.9084 2.9093 64.856 5.3755C64.8035 10.3079 64.9084 15.1878 64.6985 20.1202C64.5936 23.3211 64.3312 26.6268 63.5966 29.7227C62.3898 34.6026 58.5593 36.5441 53.9417 36.754C51.4755 36.8589 48.9044 36.5966 46.5431 35.9669C41.9255 34.7076 39.5118 30.982 39.4068 25.2625C39.3019 19.0708 39.3544 12.8791 39.3019 6.68731C39.3019 6.00517 39.3019 5.32303 39.2494 4.69336C39.0395 2.06974 38.8296 1.91232 36.2585 1.33512C36.0486 1.28265 35.8387 1.23018 35.6813 1.12524C35.5764 0.967818 35.5764 0.757932 35.4189 0.390625Z" fill="white"/>
<path d="M169.328 22.4822C170.587 19.1764 171.847 16.028 173.054 12.8797C174.523 9.10169 176.045 5.32368 177.409 1.4932C177.776 0.443749 178.301 0.0239749 179.455 0.12892C180.557 0.233864 181.502 0.0239702 182.026 1.4932C185.7 11.2531 189.478 20.908 193.256 30.6154C193.938 32.4519 194.567 34.3409 196.614 35.1805C196.771 35.2329 196.824 35.6003 196.929 35.9151C191.734 35.9151 186.644 35.9151 181.554 35.9151C181.554 35.7577 181.502 35.6003 181.502 35.3904C182.131 35.2329 182.761 35.0231 183.443 34.9181C184.807 34.6557 185.437 33.8162 185.017 32.5044C183.968 29.4085 182.866 26.3126 181.659 23.2168C181.502 22.8495 180.715 22.5346 180.242 22.5346C176.727 22.4297 173.159 22.4822 169.328 22.4822ZM176.307 8.26214C176.15 8.26214 176.045 8.26214 175.887 8.20966C174.733 11.4105 173.421 14.6113 172.424 17.8646C171.899 19.4912 173.106 21.2228 174.68 21.3802C176.727 21.5377 178.826 21.4327 181.082 21.4327C179.455 16.8676 177.881 12.5649 176.307 8.26214Z" fill="white"/>
<path d="M72.8314 35.5474C73.3037 35.3375 73.7235 35.0227 74.1957 34.9702C75.9798 34.8128 76.6094 33.7633 76.6094 32.1367C76.6094 27.5191 76.6619 22.8491 76.6619 18.2315C76.6619 13.8763 76.6619 9.52108 76.6619 5.16587C76.6619 2.12248 76.452 1.96506 73.566 1.23045C73.3037 1.17797 73.0938 0.915611 72.5166 0.443359C78.1311 0.443359 83.3259 0.443359 88.4682 0.443359C88.5207 0.548304 88.5732 0.70572 88.6256 0.810665C88.1534 0.968082 87.7336 1.23045 87.2613 1.28292C85.8446 1.44034 85.005 2.12248 84.9001 3.5917C84.8476 4.37879 84.7427 5.16588 84.7427 5.90049C84.7427 13.9812 84.7427 22.1145 84.7427 30.1952C84.7427 30.6675 84.7427 31.0872 84.7951 31.5595C85.005 34.1831 85.2149 34.393 87.7336 35.0227C88.0484 35.0751 88.3108 35.2326 88.5731 35.7573C83.3784 35.7573 78.2361 35.7573 73.0413 35.7573C72.9364 35.7048 72.8839 35.5999 72.8314 35.5474Z" fill="white"/>
<path d="M7.81817 59.6843C6.97861 59.6843 6.45389 59.6843 5.82422 59.6843C5.82422 54.9618 5.82422 50.3443 5.82422 45.3594C8.50031 45.5168 11.1764 45.4643 13.7476 45.8316C15.7415 46.094 16.9484 47.5632 17.2632 49.6096C17.5256 51.6561 16.9484 53.3877 15.1118 54.4896C14.9019 54.647 14.6396 54.7519 14.2198 55.0143C15.2692 56.536 16.2662 58.0052 17.3157 59.5269C16.0039 59.9992 15.0594 59.7368 14.4822 58.6349C14.3772 58.3725 14.1149 58.2151 14.0099 57.9527C12.8555 54.9618 10.4418 55.1192 7.7657 55.539C7.81817 56.9033 7.81817 58.2151 7.81817 59.6843ZM7.92311 47.2484C7.92311 49.4522 7.92311 51.4986 7.92311 53.65C9.33987 53.65 10.7042 53.7025 12.016 53.65C14.1149 53.5451 15.3217 52.2857 15.3217 50.3967C15.2692 48.6127 14.1149 47.4058 12.0684 47.2484C10.7041 47.1959 9.39234 47.2484 7.92311 47.2484Z" fill="white"/>
<path d="M34.6846 45.623C34.6846 46.1478 34.6846 46.5675 34.6846 47.1972C32.061 47.1972 29.4898 47.1972 26.7613 47.1972C26.7613 48.7189 26.7613 50.0832 26.7613 51.6049C29.0701 51.6049 31.3264 51.6049 33.6876 51.6049C33.6876 52.2346 33.6876 52.7068 33.6876 53.3365C31.3788 53.3365 29.1225 53.3365 26.7613 53.3365C26.7613 54.9107 26.7613 56.3274 26.7613 57.9541C29.4374 57.9541 32.1659 57.9541 34.947 57.9541C34.947 58.6362 34.947 59.1085 34.947 59.6856C31.5363 59.6856 28.178 59.6856 24.7148 59.6856C24.7148 54.9631 24.7148 50.3456 24.7148 45.623C28.0206 45.623 31.2739 45.623 34.6846 45.623Z" fill="white"/>
<path d="M90.357 53.3365C90.357 55.0156 90.357 56.4324 90.357 58.0065C93.0855 58.0065 95.7616 58.0065 98.4902 58.0065C98.5951 58.8986 99.0674 59.7906 97.7556 59.7906C94.6597 59.8431 91.5638 59.7906 88.3105 59.7906C88.3105 54.9631 88.3105 50.3456 88.3105 45.623C91.5638 45.623 94.8171 45.623 98.2278 45.623C98.2803 46.0953 98.2803 46.5151 98.3328 47.1972C95.6042 47.1972 93.0331 47.1972 90.357 47.1972C90.357 48.7189 90.357 50.0832 90.357 51.6049C92.6658 51.6049 94.9745 51.6049 97.2833 51.6049C97.2833 52.2346 97.2833 52.7068 97.2833 53.284C95.027 53.3365 92.7707 53.3365 90.357 53.3365Z" fill="white"/>
<path d="M174.156 47.1442C174.156 48.7184 174.156 50.0302 174.156 51.5519C176.465 51.5519 178.774 51.5519 181.135 51.5519C181.188 52.1816 181.188 52.6013 181.24 53.2835C178.826 53.2835 176.518 53.2835 174.156 53.2835C174.156 54.9101 174.156 56.3794 174.156 57.9011C176.832 57.9011 179.509 57.9011 182.342 57.9011C182.394 58.5307 182.394 59.0555 182.447 59.6326C178.984 59.6326 175.626 59.6326 172.215 59.6326C172.215 54.9626 172.215 50.2926 172.215 45.5176C175.468 45.5176 178.721 45.5176 182.08 45.5176C182.08 46.0423 182.08 46.5146 182.08 47.0917C179.456 47.1442 176.885 47.1442 174.156 47.1442Z" fill="white"/>
<path d="M55.0963 59.5801C53.4697 60.1573 52.735 59.5801 52.4202 58.2682C52.0004 56.5367 50.951 55.9595 49.2719 56.2218C48.4848 56.3268 47.6977 56.3268 46.9106 56.2218C44.7068 55.907 43.1851 56.4842 42.6079 58.8454C42.5029 59.3702 41.401 59.6325 40.7713 59.9998C40.6139 59.8424 40.509 59.685 40.3516 59.5276C41.0337 57.9534 41.7158 56.4317 42.4505 54.8575C43.7098 52.024 44.9691 49.1381 46.3334 46.357C46.5433 45.9372 47.2254 45.5699 47.6977 45.5175C48.1175 45.465 48.8521 45.7798 49.0095 46.1471C51.0559 50.6073 53.0499 55.0674 55.0963 59.5801ZM44.6543 54.4378C46.8057 54.4378 48.6947 54.4378 50.7411 54.4378C49.6916 52.0765 48.7471 49.9776 47.6452 47.5639C46.5958 50.0301 45.6513 52.1815 44.6543 54.4378Z" fill="white"/>
<path d="M135.693 59.5269C137.11 56.431 138.474 53.3352 139.891 50.2393C140.521 48.875 141.098 47.4583 141.728 46.1465C142.252 45.097 143.879 45.097 144.351 46.1465C146.345 50.5017 148.287 54.8569 150.281 59.2121C150.333 59.317 150.281 59.422 150.281 59.5794C149.126 60.0516 148.234 59.8417 147.919 58.4775C147.5 56.536 146.293 55.9063 144.404 56.2212C143.722 56.3261 142.935 56.3261 142.252 56.2212C140.154 55.9588 138.632 56.3786 138.055 58.7923C137.792 59.9992 137.53 59.9467 135.693 59.5269ZM146.135 54.542C145.086 52.1283 144.141 49.9769 143.039 47.5107C141.938 49.9769 140.993 52.1808 139.944 54.542C142.095 54.542 143.932 54.542 146.135 54.542Z" fill="white"/>
<path d="M104.683 58.2163C104.893 57.6915 105.102 57.2718 105.312 56.6946C107.359 57.744 109.353 58.6361 111.714 58.0064C112.816 57.6915 113.76 57.1144 113.603 56.0649C113.498 55.3303 112.658 54.4383 111.924 54.1234C110.612 53.5462 109.143 53.3363 107.778 52.8641C105.785 52.182 104.945 50.9751 105.05 49.1386C105.155 47.3545 106.309 46.0427 108.251 45.518C110.612 44.8883 112.868 45.2031 115.072 46.4625C114.862 46.9872 114.705 47.4594 114.652 47.5119C112.606 47.407 110.769 47.0921 108.933 47.2495C108.251 47.302 107.254 48.3515 107.201 49.0336C107.149 49.6633 107.988 50.7127 108.671 51.0276C109.93 51.6572 111.452 51.8146 112.816 52.2869C114.862 52.969 115.807 54.2284 115.702 55.9075C115.649 57.6915 114.39 59.1083 112.396 59.5806C109.615 60.3676 107.096 59.8954 104.683 58.2163Z" fill="white"/>
<path d="M71.1 57.9535C71.1 58.6881 71.1 59.1079 71.1 59.6851C67.8467 59.6851 64.6983 59.6851 61.3926 59.6851C61.3926 55.0151 61.3926 50.3975 61.3926 45.6225C61.9698 45.57 62.547 45.5701 63.2816 45.5176C63.2816 49.7154 63.2816 53.7557 63.2816 57.9535C65.9577 57.9535 68.4764 57.9535 71.1 57.9535Z" fill="white"/>
<path d="M127.297 59.5804C125.723 60.1052 125.199 59.7379 125.199 58.2162C125.251 54.648 125.199 51.0799 125.199 47.3019C123.624 47.3019 122.103 47.3019 120.476 47.3019C120.424 46.6198 120.424 46.1475 120.371 45.5703C124.307 45.5703 128.137 45.5703 132.072 45.5703C132.125 46.0426 132.125 46.5148 132.177 47.1445C130.551 47.1445 128.977 47.1445 127.245 47.1445C127.297 51.3947 127.297 55.4876 127.297 59.5804Z" fill="white"/>
<path d="M160.933 47.197C160.933 51.0274 160.88 54.648 160.933 58.2162C160.985 59.6329 160.408 60.0527 158.886 59.5804C158.886 55.5401 158.886 51.4472 158.886 47.2494C157.155 47.2494 155.685 47.2494 154.059 47.2494C154.006 46.6722 153.954 46.2 153.901 45.5703C157.837 45.5703 161.667 45.5703 165.603 45.5703C165.655 46.0426 165.708 46.5148 165.76 47.197C164.133 47.197 162.612 47.197 160.933 47.197Z" fill="white"/>
</svg>
