<svg width="331" height="23" viewBox="0 0 331 23" fill="none" xmlns="http://www.w3.org/2000/svg">
<path d="M17.2073 0.76C17.0673 2.18 16.9973 3.46 16.9973 4.6C16.9973 5.6 17.0273 6.42 17.0873 7.06H16.3973C16.2373 5.52 16.0373 4.38 15.7973 3.64C15.5573 2.88 15.1373 2.33 14.5373 1.99C13.9373 1.63 13.0173 1.45 11.7773 1.45H10.1573V18.52C10.1573 19.36 10.2373 19.97 10.3973 20.35C10.5573 20.73 10.8373 20.99 11.2373 21.13C11.6373 21.27 12.2873 21.36 13.1873 21.4V22C12.1473 21.94 10.6773 21.91 8.77727 21.91C6.77727 21.91 5.29727 21.94 4.33727 22V21.4C5.23727 21.36 5.88727 21.27 6.28727 21.13C6.68727 20.99 6.96727 20.73 7.12727 20.35C7.28727 19.97 7.36727 19.36 7.36727 18.52V1.45H5.74727C4.50727 1.45 3.58727 1.63 2.98727 1.99C2.38727 2.33 1.96727 2.88 1.72727 3.64C1.48727 4.38 1.28727 5.52 1.12727 7.06H0.437266C0.497266 6.42 0.527266 5.6 0.527266 4.6C0.527266 3.46 0.457266 2.18 0.317266 0.76C1.97727 0.819999 4.79727 0.849999 8.77727 0.849999C12.7373 0.849999 15.5473 0.819999 17.2073 0.76ZM37.0701 4.36C36.3701 4.4 35.8501 4.51 35.5101 4.69C35.1701 4.85 34.9401 5.13 34.8201 5.53C34.7001 5.91 34.6401 6.48 34.6401 7.24V13.87C34.6401 15.25 34.5401 16.43 34.3401 17.41C34.1601 18.37 33.8501 19.21 33.4101 19.93C32.9301 20.69 32.2301 21.3 31.3101 21.76C30.4101 22.2 29.3801 22.42 28.2201 22.42C26.1601 22.42 24.5801 21.98 23.4801 21.1C22.6001 20.32 22.0101 19.43 21.7101 18.43C21.4101 17.43 21.2601 15.94 21.2601 13.96V6.94C21.2601 6.18 21.2001 5.63 21.0801 5.29C20.9601 4.95 20.7301 4.72 20.3901 4.6C20.0701 4.48 19.5501 4.4 18.8301 4.36V3.76C19.6701 3.82 20.9501 3.85 22.6701 3.85C24.2701 3.85 25.5401 3.82 26.4801 3.76V4.36C25.7601 4.4 25.2301 4.48 24.8901 4.6C24.5701 4.72 24.3501 4.95 24.2301 5.29C24.1101 5.63 24.0501 6.18 24.0501 6.94V14.47C24.0501 15.95 24.1501 17.18 24.3501 18.16C24.5501 19.12 24.9701 19.9 25.6101 20.5C26.2701 21.08 27.2301 21.37 28.4901 21.37C30.4901 21.37 31.9001 20.74 32.7201 19.48C33.5401 18.22 33.9501 16.46 33.9501 14.2V7.24C33.9501 6.16 33.7501 5.42 33.3501 5.02C32.9701 4.62 32.2601 4.4 31.2201 4.36V3.76C31.9401 3.82 32.9601 3.85 34.2801 3.85C35.4801 3.85 36.4101 3.82 37.0701 3.76V4.36ZM46.7362 4.36C46.0162 4.4 45.4862 4.48 45.1462 4.6C44.8262 4.72 44.6062 4.95 44.4862 5.29C44.3662 5.63 44.3062 6.18 44.3062 6.94V18.82C44.3062 19.58 44.3662 20.13 44.4862 20.47C44.6062 20.81 44.8262 21.04 45.1462 21.16C45.4862 21.28 46.0162 21.36 46.7362 21.4V22C45.8162 21.94 44.5462 21.91 42.9262 21.91C41.2062 21.91 39.9262 21.94 39.0862 22V21.4C39.8062 21.36 40.3262 21.28 40.6462 21.16C40.9862 21.04 41.2162 20.81 41.3362 20.47C41.4562 20.13 41.5162 19.58 41.5162 18.82V6.94C41.5162 6.18 41.4562 5.63 41.3362 5.29C41.2162 4.95 40.9862 4.72 40.6462 4.6C40.3262 4.48 39.8062 4.4 39.0862 4.36V3.76C39.9262 3.82 41.2062 3.85 42.9262 3.85C44.5262 3.85 45.7962 3.82 46.7362 3.76V4.36ZM72.2622 4.36C71.5422 4.4 71.0122 4.48 70.6722 4.6C70.3522 4.72 70.1322 4.95 70.0122 5.29C69.8922 5.63 69.8322 6.18 69.8322 6.94V18.82C69.8322 19.58 69.8922 20.13 70.0122 20.47C70.1322 20.81 70.3522 21.04 70.6722 21.16C71.0122 21.28 71.5422 21.36 72.2622 21.4V22C71.3422 21.94 70.0722 21.91 68.4522 21.91C66.7322 21.91 65.4522 21.94 64.6122 22V21.4C65.3322 21.36 65.8522 21.28 66.1722 21.16C66.5122 21.04 66.7422 20.81 66.8622 20.47C66.9822 20.13 67.0422 19.58 67.0422 18.82V5.65L59.8122 22.15H59.3322L52.3722 5.68V18.52C52.3722 19.3 52.4322 19.88 52.5522 20.26C52.6922 20.64 52.9522 20.92 53.3322 21.1C53.7122 21.26 54.3022 21.36 55.1022 21.4V22C54.3822 21.94 53.3622 21.91 52.0422 21.91C50.8422 21.91 49.9122 21.94 49.2522 22V21.4C49.9522 21.36 50.4722 21.26 50.8122 21.1C51.1522 20.92 51.3822 20.64 51.5022 20.26C51.6222 19.86 51.6822 19.28 51.6822 18.52V6.94C51.6822 6.18 51.6222 5.63 51.5022 5.29C51.3822 4.95 51.1522 4.72 50.8122 4.6C50.4922 4.48 49.9722 4.4 49.2522 4.36V3.76C49.9122 3.82 50.8422 3.85 52.0422 3.85C53.0022 3.85 53.8522 3.82 54.5922 3.76L60.6222 18.37L67.0422 3.85H68.4522C70.0722 3.85 71.3422 3.82 72.2622 3.76V4.36ZM90.0098 19.48C90.5498 20.72 91.2398 21.36 92.0798 21.4V22C91.2798 21.94 90.2098 21.91 88.8698 21.91C87.1498 21.91 85.8698 21.94 85.0298 22V21.4C85.7698 21.36 86.3098 21.26 86.6498 21.1C87.0098 20.94 87.1898 20.67 87.1898 20.29C87.1898 19.97 87.0498 19.5 86.7698 18.88L85.2398 15.46H77.9498L76.9298 17.71C76.5898 18.49 76.4198 19.13 76.4198 19.63C76.4198 20.15 76.5998 20.56 76.9598 20.86C77.3398 21.14 77.9398 21.32 78.7598 21.4V22C78.1598 21.94 77.2498 21.91 76.0298 21.91C74.8098 21.91 73.9398 21.94 73.4198 22V21.4C73.9598 21.26 74.4198 20.96 74.7998 20.5C75.1798 20.02 75.5398 19.39 75.8798 18.61L82.5098 3.61H82.9898L90.0098 19.48ZM84.9998 14.86L81.6098 7.24L78.1898 14.86H84.9998ZM108.496 19.48C109.036 20.72 109.726 21.36 110.566 21.4V22C109.766 21.94 108.696 21.91 107.356 21.91C105.636 21.91 104.356 21.94 103.516 22V21.4C104.256 21.36 104.796 21.26 105.136 21.1C105.496 20.94 105.676 20.67 105.676 20.29C105.676 19.97 105.536 19.5 105.256 18.88L103.726 15.46H96.4361L95.4161 17.71C95.0761 18.49 94.9061 19.13 94.9061 19.63C94.9061 20.15 95.0861 20.56 95.4461 20.86C95.8261 21.14 96.4261 21.32 97.2461 21.4V22C96.6461 21.94 95.7361 21.91 94.5161 21.91C93.2961 21.91 92.4261 21.94 91.9061 22V21.4C92.4461 21.26 92.9061 20.96 93.2861 20.5C93.6661 20.02 94.0261 19.39 94.3661 18.61L100.996 3.61H101.476L108.496 19.48ZM103.486 14.86L100.096 7.24L96.6761 14.86H103.486ZM119.932 3.76C123.052 3.76 125.392 4.52 126.952 6.04C128.532 7.54 129.322 9.74 129.322 12.64C129.322 14.52 128.942 16.17 128.182 17.59C127.422 18.99 126.312 20.08 124.852 20.86C123.412 21.62 121.682 22 119.662 22L117.922 21.97C116.802 21.93 115.982 21.91 115.462 21.91C113.822 21.91 112.582 21.94 111.742 22V21.4C112.462 21.36 112.982 21.28 113.302 21.16C113.642 21.04 113.872 20.81 113.992 20.47C114.112 20.13 114.172 19.58 114.172 18.82V6.94C114.172 6.18 114.112 5.63 113.992 5.29C113.872 4.95 113.642 4.72 113.302 4.6C112.982 4.48 112.462 4.4 111.742 4.36V3.76C112.442 3.82 113.412 3.85 114.652 3.85L117.202 3.82C118.562 3.78 119.472 3.76 119.932 3.76ZM119.182 4.3C118.562 4.3 118.092 4.37 117.772 4.51C117.472 4.65 117.262 4.9 117.142 5.26C117.022 5.62 116.962 6.16 116.962 6.88V18.88C116.962 19.6 117.022 20.14 117.142 20.5C117.262 20.86 117.472 21.11 117.772 21.25C118.092 21.39 118.572 21.46 119.212 21.46C121.032 21.46 122.462 21.14 123.502 20.5C124.542 19.84 125.272 18.88 125.692 17.62C126.112 16.36 126.322 14.74 126.322 12.76C126.322 9.84 125.782 7.7 124.702 6.34C123.622 4.98 121.782 4.3 119.182 4.3ZM146.318 19.48C146.858 20.72 147.548 21.36 148.388 21.4V22C147.588 21.94 146.518 21.91 145.178 21.91C143.458 21.91 142.178 21.94 141.338 22V21.4C142.078 21.36 142.618 21.26 142.958 21.1C143.318 20.94 143.498 20.67 143.498 20.29C143.498 19.97 143.358 19.5 143.078 18.88L141.548 15.46H134.258L133.238 17.71C132.898 18.49 132.728 19.13 132.728 19.63C132.728 20.15 132.908 20.56 133.268 20.86C133.648 21.14 134.248 21.32 135.068 21.4V22C134.468 21.94 133.558 21.91 132.338 21.91C131.118 21.91 130.248 21.94 129.728 22V21.4C130.268 21.26 130.728 20.96 131.108 20.5C131.488 20.02 131.848 19.39 132.188 18.61L138.818 3.61H139.298L146.318 19.48ZM141.308 14.86L137.918 7.24L134.498 14.86H141.308ZM174.609 20.5C174.149 21.18 173.689 21.67 173.229 21.97C172.769 22.27 172.159 22.42 171.399 22.42C170.579 22.42 169.899 22.18 169.359 21.7C168.839 21.22 168.449 20.38 168.189 19.18L167.529 16.18C167.289 15.14 167.059 14.34 166.839 13.78C166.639 13.22 166.329 12.77 165.909 12.43C165.489 12.09 164.899 11.92 164.139 11.92H161.289V18.82C161.289 19.58 161.349 20.13 161.469 20.47C161.589 20.81 161.809 21.04 162.129 21.16C162.469 21.28 162.999 21.36 163.719 21.4V22C162.799 21.94 161.529 21.91 159.909 21.91C158.189 21.91 156.909 21.94 156.069 22V21.4C156.789 21.36 157.309 21.28 157.629 21.16C157.969 21.04 158.199 20.81 158.319 20.47C158.439 20.13 158.499 19.58 158.499 18.82V3.94C158.499 3.18 158.439 2.63 158.319 2.29C158.199 1.95 157.969 1.72 157.629 1.6C157.309 1.48 156.789 1.4 156.069 1.36V0.76C156.909 0.819999 158.129 0.849999 159.729 0.849999L162.969 0.819999C163.349 0.799999 163.779 0.789999 164.259 0.789999C166.579 0.789999 168.359 1.28 169.599 2.26C170.859 3.22 171.489 4.47 171.489 6.01C171.489 6.79 171.299 7.58 170.919 8.38C170.559 9.16 169.939 9.87 169.059 10.51C168.199 11.13 167.069 11.55 165.669 11.77L166.029 11.83C167.349 12.05 168.309 12.45 168.909 13.03C169.509 13.61 169.949 14.53 170.229 15.79L170.979 18.85C171.179 19.77 171.389 20.41 171.609 20.77C171.829 21.13 172.129 21.31 172.509 21.31C172.849 21.31 173.129 21.22 173.349 21.04C173.589 20.86 173.859 20.57 174.159 20.17L174.609 20.5ZM163.509 1.36C162.889 1.36 162.419 1.43 162.099 1.57C161.799 1.71 161.589 1.96 161.469 2.32C161.349 2.68 161.289 3.22 161.289 3.94V11.32H163.299C165.279 11.32 166.639 10.88 167.379 10C168.119 9.12 168.489 7.9 168.489 6.34C168.489 4.7 168.099 3.46 167.319 2.62C166.539 1.78 165.269 1.36 163.509 1.36ZM190.282 18.46C190.282 19.5 190.352 20.68 190.492 22C189.192 21.94 187.002 21.91 183.922 21.91C180.222 21.91 177.422 21.94 175.522 22V21.4C176.242 21.36 176.762 21.28 177.082 21.16C177.422 21.04 177.652 20.81 177.772 20.47C177.892 20.13 177.952 19.58 177.952 18.82V6.94C177.952 6.18 177.892 5.63 177.772 5.29C177.652 4.95 177.422 4.72 177.082 4.6C176.762 4.48 176.242 4.4 175.522 4.36V3.76C177.422 3.82 180.222 3.85 183.922 3.85C186.722 3.85 188.712 3.82 189.892 3.76C189.752 4.96 189.682 6.04 189.682 7C189.682 7.78 189.712 8.4 189.772 8.86H189.082C188.942 7.22 188.592 6.08 188.032 5.44C187.492 4.78 186.602 4.45 185.362 4.45H183.172C182.452 4.45 181.922 4.51 181.582 4.63C181.262 4.73 181.042 4.95 180.922 5.29C180.802 5.63 180.742 6.18 180.742 6.94V12.52H183.232C183.872 12.52 184.362 12.36 184.702 12.04C185.042 11.7 185.272 11.34 185.392 10.96C185.512 10.56 185.622 10.06 185.722 9.46H186.412C186.352 10.14 186.322 10.88 186.322 11.68V12.82C186.322 13.6 186.382 14.72 186.502 16.18H185.812C185.692 15.22 185.462 14.47 185.122 13.93C184.782 13.39 184.152 13.12 183.232 13.12H180.742V18.82C180.742 19.58 180.802 20.13 180.922 20.47C181.042 20.81 181.262 21.04 181.582 21.16C181.922 21.26 182.452 21.31 183.172 21.31H185.362C186.362 21.31 187.152 21.15 187.732 20.83C188.312 20.51 188.752 20 189.052 19.3C189.352 18.58 189.562 17.58 189.682 16.3H190.372C190.312 16.84 190.282 17.56 190.282 18.46ZM208.604 19.48C209.144 20.72 209.834 21.36 210.674 21.4V22C209.874 21.94 208.804 21.91 207.464 21.91C205.744 21.91 204.464 21.94 203.624 22V21.4C204.364 21.36 204.904 21.26 205.244 21.1C205.604 20.94 205.784 20.67 205.784 20.29C205.784 19.97 205.644 19.5 205.364 18.88L203.834 15.46H196.544L195.524 17.71C195.184 18.49 195.014 19.13 195.014 19.63C195.014 20.15 195.194 20.56 195.554 20.86C195.934 21.14 196.534 21.32 197.354 21.4V22C196.754 21.94 195.844 21.91 194.624 21.91C193.404 21.91 192.534 21.94 192.014 22V21.4C192.554 21.26 193.014 20.96 193.394 20.5C193.774 20.02 194.134 19.39 194.474 18.61L201.104 3.61H201.584L208.604 19.48ZM203.594 14.86L200.204 7.24L196.784 14.86H203.594ZM219.5 4.36C218.78 4.4 218.25 4.48 217.91 4.6C217.59 4.72 217.37 4.95 217.25 5.29C217.13 5.63 217.07 6.18 217.07 6.94V18.82C217.07 19.58 217.13 20.13 217.25 20.47C217.37 20.81 217.59 21.04 217.91 21.16C218.25 21.26 218.78 21.31 219.5 21.31H221.39C222.77 21.31 223.84 20.9 224.6 20.08C225.38 19.26 225.85 17.9 226.01 16H226.7C226.64 16.62 226.61 17.44 226.61 18.46C226.61 19.5 226.68 20.68 226.82 22C225.52 21.94 223.33 21.91 220.25 21.91C216.55 21.91 213.75 21.94 211.85 22V21.4C212.57 21.36 213.09 21.28 213.41 21.16C213.75 21.04 213.98 20.81 214.1 20.47C214.22 20.13 214.28 19.58 214.28 18.82V6.94C214.28 6.18 214.22 5.63 214.1 5.29C213.98 4.95 213.75 4.72 213.41 4.6C213.09 4.48 212.57 4.4 211.85 4.36V3.76C212.69 3.82 213.97 3.85 215.69 3.85C217.29 3.85 218.56 3.82 219.5 3.76V4.36ZM243.807 18.46C243.807 19.5 243.877 20.68 244.017 22C242.717 21.94 240.527 21.91 237.447 21.91C233.747 21.91 230.947 21.94 229.047 22V21.4C229.767 21.36 230.287 21.28 230.607 21.16C230.947 21.04 231.177 20.81 231.297 20.47C231.417 20.13 231.477 19.58 231.477 18.82V6.94C231.477 6.18 231.417 5.63 231.297 5.29C231.177 4.95 230.947 4.72 230.607 4.6C230.287 4.48 229.767 4.4 229.047 4.36V3.76C230.947 3.82 233.747 3.85 237.447 3.85C240.247 3.85 242.237 3.82 243.417 3.76C243.277 4.96 243.207 6.04 243.207 7C243.207 7.78 243.237 8.4 243.297 8.86H242.607C242.467 7.22 242.117 6.08 241.557 5.44C241.017 4.78 240.127 4.45 238.887 4.45H236.697C235.977 4.45 235.447 4.51 235.107 4.63C234.787 4.73 234.567 4.95 234.447 5.29C234.327 5.63 234.267 6.18 234.267 6.94V12.52H236.757C237.397 12.52 237.887 12.36 238.227 12.04C238.567 11.7 238.797 11.34 238.917 10.96C239.037 10.56 239.147 10.06 239.247 9.46H239.937C239.877 10.14 239.847 10.88 239.847 11.68V12.82C239.847 13.6 239.907 14.72 240.027 16.18H239.337C239.217 15.22 238.987 14.47 238.647 13.93C238.307 13.39 237.677 13.12 236.757 13.12H234.267V18.82C234.267 19.58 234.327 20.13 234.447 20.47C234.567 20.81 234.787 21.04 235.107 21.16C235.447 21.26 235.977 21.31 236.697 21.31H238.887C239.887 21.31 240.677 21.15 241.257 20.83C241.837 20.51 242.277 20 242.577 19.3C242.877 18.58 243.087 17.58 243.207 16.3H243.897C243.837 16.84 243.807 17.56 243.807 18.46ZM253.309 3.34C254.189 3.34 254.879 3.44 255.379 3.64C255.899 3.82 256.429 4.09 256.969 4.45C257.409 4.73 257.749 4.87 257.989 4.87C258.169 4.87 258.309 4.77 258.409 4.57C258.509 4.35 258.589 4.01 258.649 3.55H259.339C259.239 4.59 259.189 6.43 259.189 9.07H258.499C258.379 7.63 257.909 6.41 257.089 5.41C256.289 4.41 255.119 3.91 253.579 3.91C252.519 3.91 251.639 4.19 250.939 4.75C250.259 5.31 249.919 6.02 249.919 6.88C249.919 7.5 250.069 8.04 250.369 8.5C250.689 8.96 251.089 9.36 251.569 9.7C252.069 10.02 252.769 10.42 253.669 10.9L254.659 11.44C255.899 12.1 256.889 12.69 257.629 13.21C258.389 13.73 258.999 14.33 259.459 15.01C259.919 15.67 260.149 16.44 260.149 17.32C260.149 18.94 259.559 20.2 258.379 21.1C257.219 21.98 255.759 22.42 253.999 22.42C253.039 22.42 252.249 22.32 251.629 22.12C251.029 21.92 250.449 21.65 249.889 21.31C249.449 21.03 249.109 20.89 248.869 20.89C248.689 20.89 248.549 21 248.449 21.22C248.349 21.42 248.269 21.75 248.209 22.21H247.519C247.599 21.23 247.639 19.03 247.639 15.61H248.329C248.469 17.47 248.969 18.97 249.829 20.11C250.689 21.25 252.009 21.82 253.789 21.82C254.789 21.82 255.649 21.54 256.369 20.98C257.109 20.4 257.479 19.55 257.479 18.43C257.479 17.77 257.289 17.19 256.909 16.69C256.529 16.17 256.019 15.71 255.379 15.31C254.739 14.91 253.849 14.41 252.709 13.81C251.069 12.97 249.819 12.13 248.959 11.29C248.099 10.45 247.669 9.36 247.669 8.02C247.669 6.54 248.209 5.39 249.289 4.57C250.389 3.75 251.729 3.34 253.309 3.34ZM279.594 3.76C279.454 5.08 279.384 6.26 279.384 7.3C279.384 8.34 279.414 9.16 279.474 9.76H278.784C278.664 8.36 278.474 7.29 278.214 6.55C277.954 5.81 277.534 5.28 276.954 4.96C276.374 4.62 275.544 4.45 274.464 4.45H272.544V18.52C272.544 19.36 272.624 19.97 272.784 20.35C272.944 20.73 273.224 20.99 273.624 21.13C274.024 21.27 274.674 21.36 275.574 21.4V22C274.534 21.94 273.064 21.91 271.164 21.91C269.164 21.91 267.684 21.94 266.724 22V21.4C267.624 21.36 268.274 21.27 268.674 21.13C269.074 20.99 269.354 20.73 269.514 20.35C269.674 19.97 269.754 19.36 269.754 18.52V4.45H267.834C266.754 4.45 265.924 4.62 265.344 4.96C264.764 5.28 264.344 5.81 264.084 6.55C263.824 7.29 263.634 8.36 263.514 9.76H262.824C262.884 9.12 262.914 8.3 262.914 7.3C262.914 6.26 262.844 5.08 262.704 3.76C264.364 3.82 267.184 3.85 271.164 3.85C275.124 3.85 277.934 3.82 279.594 3.76ZM295.146 19.48C295.686 20.72 296.376 21.36 297.216 21.4V22C296.416 21.94 295.346 21.91 294.006 21.91C292.286 21.91 291.006 21.94 290.166 22V21.4C290.906 21.36 291.446 21.26 291.786 21.1C292.146 20.94 292.326 20.67 292.326 20.29C292.326 19.97 292.186 19.5 291.906 18.88L290.376 15.46H283.086L282.066 17.71C281.726 18.49 281.556 19.13 281.556 19.63C281.556 20.15 281.736 20.56 282.096 20.86C282.476 21.14 283.076 21.32 283.896 21.4V22C283.296 21.94 282.386 21.91 281.166 21.91C279.946 21.91 279.076 21.94 278.556 22V21.4C279.096 21.26 279.556 20.96 279.936 20.5C280.316 20.02 280.676 19.39 281.016 18.61L287.646 3.61H288.126L295.146 19.48ZM290.136 14.86L286.746 7.24L283.326 14.86H290.136ZM313.695 3.76C313.555 5.08 313.485 6.26 313.485 7.3C313.485 8.34 313.515 9.16 313.575 9.76H312.885C312.765 8.36 312.575 7.29 312.315 6.55C312.055 5.81 311.635 5.28 311.055 4.96C310.475 4.62 309.645 4.45 308.565 4.45H306.645V18.52C306.645 19.36 306.725 19.97 306.885 20.35C307.045 20.73 307.325 20.99 307.725 21.13C308.125 21.27 308.775 21.36 309.675 21.4V22C308.635 21.94 307.165 21.91 305.265 21.91C303.265 21.91 301.785 21.94 300.825 22V21.4C301.725 21.36 302.375 21.27 302.775 21.13C303.175 20.99 303.455 20.73 303.615 20.35C303.775 19.97 303.855 19.36 303.855 18.52V4.45H301.935C300.855 4.45 300.025 4.62 299.445 4.96C298.865 5.28 298.445 5.81 298.185 6.55C297.925 7.29 297.735 8.36 297.615 9.76H296.925C296.985 9.12 297.015 8.3 297.015 7.3C297.015 6.26 296.945 5.08 296.805 3.76C298.465 3.82 301.285 3.85 305.265 3.85C309.225 3.85 312.035 3.82 313.695 3.76ZM330.731 18.46C330.731 19.5 330.801 20.68 330.941 22C329.641 21.94 327.451 21.91 324.371 21.91C320.671 21.91 317.871 21.94 315.971 22V21.4C316.691 21.36 317.211 21.28 317.531 21.16C317.871 21.04 318.101 20.81 318.221 20.47C318.341 20.13 318.401 19.58 318.401 18.82V6.94C318.401 6.18 318.341 5.63 318.221 5.29C318.101 4.95 317.871 4.72 317.531 4.6C317.211 4.48 316.691 4.4 315.971 4.36V3.76C317.871 3.82 320.671 3.85 324.371 3.85C327.171 3.85 329.161 3.82 330.341 3.76C330.201 4.96 330.131 6.04 330.131 7C330.131 7.78 330.161 8.4 330.221 8.86H329.531C329.391 7.22 329.041 6.08 328.481 5.44C327.941 4.78 327.051 4.45 325.811 4.45H323.621C322.901 4.45 322.371 4.51 322.031 4.63C321.711 4.73 321.491 4.95 321.371 5.29C321.251 5.63 321.191 6.18 321.191 6.94V12.52H323.681C324.321 12.52 324.811 12.36 325.151 12.04C325.491 11.7 325.721 11.34 325.841 10.96C325.961 10.56 326.071 10.06 326.171 9.46H326.861C326.801 10.14 326.771 10.88 326.771 11.68V12.82C326.771 13.6 326.831 14.72 326.951 16.18H326.261C326.141 15.22 325.911 14.47 325.571 13.93C325.231 13.39 324.601 13.12 323.681 13.12H321.191V18.82C321.191 19.58 321.251 20.13 321.371 20.47C321.491 20.81 321.711 21.04 322.031 21.16C322.371 21.26 322.901 21.31 323.621 21.31H325.811C326.811 21.31 327.601 21.15 328.181 20.83C328.761 20.51 329.201 20 329.501 19.3C329.801 18.58 330.011 17.58 330.131 16.3H330.821C330.761 16.84 330.731 17.56 330.731 18.46Z" fill="#013220"/>
</svg>
